<?xml version="1.0" encoding="UTF-8"?>
<svg version="1.1" viewBox="0 0 40 40" xmlns="http://www.w3.org/2000/svg">
<g fill="none" fill-rule="evenodd">
<circle cx="20" cy="20" r="20" fill="#E7523E"/>
<path d="m20 23.896c-0.336 0-0.62067-0.112-0.854-0.336s-0.378-0.55066-0.434-0.98l-1.232-9.8c-0.018667-0.093334-0.028-0.224-0.028-0.392 0-0.69067 0.24266-1.2413 0.728-1.652s1.092-0.616 1.82-0.616 1.3347 0.20533 1.82 0.616 0.728 0.97066 0.728 1.68c0 0.168-0.0093332 0.29867-0.028 0.392l-1.26 9.772c-0.037334 0.42934-0.17267 0.756-0.406 0.98s-0.518 0.336-0.854 0.336zm0 6.272c-0.69067 0-1.26-0.22866-1.708-0.686s-0.672-1.0313-0.672-1.722 0.224-1.2647 0.672-1.722 1.0173-0.686 1.708-0.686 1.26 0.22866 1.708 0.686 0.672 1.0313 0.672 1.722-0.224 1.2647-0.672 1.722-1.0173 0.686-1.708 0.686z" fill="#fff" fill-rule="nonzero"/>
</g>
</svg>
