<svg width="1000" height="600" viewBox="0 0 1000 600" fill="none" xmlns="http://www.w3.org/2000/svg">
<g opacity="0.15">
<path fill-rule="evenodd" clip-rule="evenodd" d="M732.5 66C714.551 66 700 80.5508 700 98.5C700 116.449 714.551 131 732.5 131C750.449 131 765 116.449 765 98.5C765 80.5508 750.449 66 732.5 66ZM702 98.5C702 81.6554 715.655 68 732.5 68C749.345 68 763 81.6554 763 98.5C763 115.345 749.345 129 732.5 129C715.655 129 702 115.345 702 98.5Z" fill="white"/>
<path fill-rule="evenodd" clip-rule="evenodd" d="M704 39.9235C704.043 26.1334 699.641 11.6858 692.444 0H694.781C697.725 4.95619 700.184 10.3678 702.043 16H733.842C737.472 10.1531 742.992 4.32268 748.501 0H751.837C746.154 4.0491 740.187 9.99585 736.217 16H787V98.9044C795.72 98.2289 803.355 95.4077 810.872 90.6494C818.81 85.6246 825.299 78.6268 829.7 70.3445C834.101 62.0623 836.263 52.7808 835.974 43.4132C835.685 34.0455 832.955 24.914 828.051 16.917C824.268 10.7473 817.342 4.26956 811.336 0H814.694C820.268 4.29506 826.251 10.1543 829.756 15.8715C832.516 20.3722 834.612 25.2196 836 30.2647V3.48091e-05H838V47H837.967C837.674 55.465 835.458 63.7706 831.466 71.2831C830.81 72.5177 830.109 73.7248 829.365 74.9022L862.813 43.9722C867.399 38.4883 874.292 35 882 35C895.807 35 907 46.1929 907 60C907 70.3233 900.743 79.1852 891.814 83H946V42.7675C933.923 41.2592 924.274 32.0501 922.35 20.2867L902.222 0H905.039L922.025 17.1193C922.008 16.7358 922 16.3502 922 15.9627C922 12.9733 922.905 9.65854 924.171 6.58901C925.154 4.20444 926.373 1.92421 927.609 0H930.016C928.611 2.01129 927.151 4.60856 926.02 7.35142C924.805 10.2967 924 13.3375 924 15.9627C924 16.6314 924.027 17.2941 924.079 17.9498L942.029 0H944.857L926.373 18.4844H974.872C974.953 17.6916 974.996 16.888 975 16.0754V15.8821C974.984 13.2754 974.182 10.2666 972.98 7.35142C971.849 4.60856 970.389 2.01129 968.984 0H971.391C972.627 1.92421 973.846 4.20444 974.829 6.58901C974.887 6.72866 974.944 6.86881 975 7.00942V0H977L977 15.8766L977 15.9627L977 16.0792V150.5H1000V152.5H976.387L934.003 191.074C940.988 191.418 947.869 192.962 954.344 195.643C961.745 198.709 968.469 203.202 974.133 208.867C979.798 214.531 984.291 221.255 987.357 228.656C990.103 235.286 991.655 242.343 991.949 249.5H1000V251.5H992V424.835L992.083 424.918L992 425V486.5H872V515H923.045L923.459 514.586L923.873 515H1000V517H925.873L975 566.127V541.5H1000V543.5H977V600H975V569.873L955.991 588.882C962.313 590.616 967.829 594.758 971.524 600H969.031C965.369 595.345 960.159 591.823 954.339 590.534L944.873 600H942.045L951.912 590.133C951.116 590.045 950.311 590 949.5 590C941.772 590 934.622 594.086 929.969 600H927.476C932.392 593.027 940.528 588 949.5 588C950.917 588 952.314 588.126 953.68 588.364L974.044 568L923.459 517.414L872.875 567.998L905.034 600H902.199L870.043 568.002L870.044 568H870V486.5H838V600H836V486.5H802V511H801.994C801.866 520.904 799.841 530.696 796.024 539.851C792.078 549.315 786.295 557.914 779.006 565.157C771.716 572.399 763.062 578.144 753.539 582.064C744.015 585.983 733.808 588 723.5 588C713.192 588 702.985 585.983 693.461 582.064C683.938 578.144 675.284 572.399 667.994 565.157C660.705 557.914 654.922 549.315 650.976 539.851C649.304 535.84 647.975 531.706 647 527.494V566.266C663.701 570.015 678.662 579.289 689.453 592.605C691.371 594.973 693.137 597.443 694.745 600H692.37C690.99 597.888 689.499 595.839 687.899 593.864C677.487 581.015 663.085 572.03 647 568.317V600H645V552H613V600H611V552H542V570.606C546.886 567.448 552.492 565.552 558.312 565.103C564.742 564.608 571.182 565.899 576.924 568.833C582.667 571.766 587.486 576.229 590.853 581.729C594.219 587.229 596 593.552 596 600H594C594 593.92 592.32 587.959 589.147 582.773C585.973 577.588 581.428 573.38 576.015 570.614C570.601 567.847 564.528 566.631 558.466 567.097C552.542 567.554 546.854 569.601 542 573.019V600H540V552H510V600H508V552H499.5V550H610L579 519H508V452.5H499.5V450.5H508V243.5H499.5V241.5H508V217H499.5V215H508V3.48091e-05H510V82H540V3.48091e-05H542V26.9814C546.854 30.3994 552.542 32.4464 558.466 32.9026C564.528 33.3694 570.601 32.1526 576.015 29.3865C581.428 26.6203 585.973 22.4123 589.147 17.2267C592.32 12.0412 594 6.0797 594 3.48091e-05H596C596 6.44816 594.219 12.771 590.853 18.2708C587.486 23.7706 582.667 28.2336 576.924 31.1675C571.182 34.1013 564.742 35.3918 558.312 34.8967C552.492 34.4485 546.886 32.5524 542 29.3938V82H611V3.48091e-05H613V123.015C622.707 123.263 632.097 126.617 639.759 132.607C641.641 134.079 643.392 135.688 645 137.418V113L644.802 112.02L645 111.98V3.48091e-05H647V111.541C662.781 107.851 676.931 99.0638 687.24 86.5083C698.026 73.3727 703.946 56.9178 704 39.9235ZM872 517H921.045L872 566.045V517ZM739 511H799.993C799.866 520.639 797.893 530.17 794.178 539.082C790.334 548.302 784.699 556.68 777.596 563.738C770.493 570.795 762.059 576.394 752.777 580.214C748.318 582.049 743.704 583.457 739 584.424V511ZM737 511V584.807C732.718 585.57 728.369 585.97 724 585.998V511H737ZM722 511V585.985C717.967 585.907 713.955 585.512 710 584.807V511H722ZM708 511V584.424C703.296 583.457 698.682 582.049 694.223 580.214C684.941 576.394 676.507 570.795 669.404 563.738C662.301 556.68 656.666 548.302 652.822 539.082C649.107 530.17 647.134 520.639 647.007 511H708ZM989.998 251.5C989.999 251.667 990 251.833 990 252V269.082L941.5 316.944V290.709C959.394 286.218 972.839 270.514 973.928 251.5H989.998ZM989.947 249.5C989.655 242.606 988.155 235.809 985.509 229.422C982.544 222.263 978.198 215.759 972.719 210.281C967.241 204.802 960.737 200.456 953.578 197.491C950.629 196.27 947.593 195.292 944.5 194.565V208.162C961.635 213.823 974 229.968 974 249L974 249.097L974 249.201L973.999 249.293C973.999 249.362 973.998 249.431 973.997 249.5H989.947ZM942.5 194.132C939.21 193.478 935.865 193.105 932.5 193.019V206.026C935.952 206.144 939.301 206.669 942.5 207.555V194.132ZM931.113 191L975 151.058V85H948V132.397L948 132.5L948 132.603V133H947.996C947.729 148.509 935.073 161 919.5 161C915.016 161 910.774 159.965 907 158.12V184.5H802V315.647L870.031 250.045C870.267 242.701 871.827 235.455 874.643 228.656C877.709 221.255 882.202 214.531 887.866 208.867C893.531 203.202 900.255 198.709 907.656 195.643C915.057 192.578 922.989 191 931 191L931.113 191ZM872 251.94L872 251.765L872.001 251.629L872.002 251.5H888V327.5H872V251.94ZM872.053 249.5C872.345 242.606 873.845 235.809 876.491 229.422C879.456 222.264 883.802 215.759 889.281 210.281C894.759 204.802 901.263 200.456 908.422 197.491C911.529 196.204 914.734 195.188 918 194.45V208C900.606 213.51 888 229.783 888 249C888 249.167 888.001 249.334 888.003 249.5H872.053ZM920 194.035C923.455 193.379 926.968 193.032 930.5 193.002V206.003C926.875 206.044 923.357 206.534 920 207.42V194.035ZM734.866 18.1814L734.552 18H702.675C704.837 25.1602 706.023 32.6269 706 39.9298C705.944 57.3849 699.864 74.2858 688.786 87.7775C686.648 90.3814 684.349 92.8274 681.908 95.1045H682.5V148.5H785V18H734.972L734.924 18.0819L734.866 18.1814ZM787 150.5V100.91C791.583 100.568 795.876 99.6573 800 98.2124V182.5H682.5V150.5H787ZM802 150V97.4648C805.394 96.1164 808.685 94.401 811.942 92.3393C815.295 90.2165 818.399 87.754 821.209 85H863V133H891.004C891.114 139.404 893.337 145.292 897.004 150H802ZM924.416 20.4844C926.583 32.1339 936.976 40.9844 949.5 40.9844C962.024 40.9844 972.416 32.1339 974.584 20.4844H924.416ZM975 26.1005C970.917 36.0075 961.029 42.9844 949.5 42.9844C948.997 42.9844 948.496 42.9711 948 42.9449V83H975V26.1005ZM972 249C972 249.167 971.999 249.334 971.997 249.5H944.5V210.275C960.511 215.856 972 231.086 972 249ZM932.5 208.027C935.96 208.151 939.31 208.704 942.5 209.635V249.5H932.5V208.027ZM930.5 208.003C926.867 208.046 923.347 208.562 920 209.492V249.5H930.5V208.003ZM890 249C890 230.9 901.728 215.54 918 210.104V249.5H890.003L890.002 249.398L890.001 249.245L890 249.086L890 249ZM931 290C952.804 290 970.633 272.98 971.925 251.5H890.075C890.792 263.424 896.605 273.973 905.366 281H906V281.499C912.92 286.83 921.59 290 931 290ZM890 327.5V262C892.578 270.137 897.511 277.227 904 282.468V327.5H890ZM906 351.977V283.99C910.578 287.267 915.827 289.668 921.5 290.947V336.681L906 351.977ZM923.5 334.707V291.348C925.936 291.777 928.442 292 931 292C933.91 292 936.752 291.711 939.5 291.16V318.917L923.5 334.707ZM864.267 45.3514L868.179 41.7342L868.114 41.6636C871.972 38.7368 876.783 37 882 37C894.703 37 905 47.2975 905 60C905 72.7026 894.703 83 882 83C869.297 83 859 72.7026 859 60C859 54.4341 860.977 49.3299 864.267 45.3514ZM858.974 50.2461L823.554 83H872.186C863.257 79.1852 857 70.3233 857 60C857 56.5395 857.703 53.2431 858.974 50.2461ZM865 85V131H891.039C891.819 115.957 904.263 104 919.5 104C931.529 104 941.817 111.452 946 121.991V85H865ZM652.569 148.5C651.06 145.369 649.191 142.423 647 139.72V113.594C659.488 110.754 670.999 104.811 680.5 96.3855V148.5H652.569ZM655.924 158.152C655.335 155.519 654.512 152.959 653.473 150.5H680.5V204.602L645.57 241.5H623.766C645.729 236.02 662 216.16 662 192.5C662 184.581 660.177 177.088 656.929 170.417C657.16 166.331 656.83 162.204 655.924 158.152ZM653.972 158.589C654.58 161.307 654.916 164.06 654.986 166.81C646.432 152.361 630.882 142.543 613 142.022V125.016C622.262 125.263 631.218 128.468 638.527 134.183C646.356 140.304 651.812 148.927 653.972 158.589ZM610.981 123.008L611 123.008V84H595V144.757C600.021 143.022 605.401 142.057 611 142.002V123.997L610.981 123.008ZM650.382 187.197C652.989 182.056 654.509 176.486 654.899 170.825C647.15 155.34 631.358 144.58 613 144.023V189.417L630.264 206.681C638.961 202.601 646.046 195.746 650.382 187.197ZM652.166 188.101C647.736 196.837 640.565 203.879 631.763 208.18L639.292 215.709L614.067 240.933C639.659 239.599 660 218.425 660 192.5C660 186.111 658.765 180.01 656.519 174.424C655.82 179.151 654.361 183.772 652.166 188.101ZM595 146.879C600.002 145.07 605.387 144.059 611 144.003V188.583L583.875 215.709L585 216.834V217H585.166L609.108 240.942C583.433 239.695 563 218.484 563 192.5C563 172.122 575.568 154.679 593.375 147.5H595V146.879ZM593 145.496V84H563.334L581.5 102.166L562 121.667V182.451C565.414 165.539 577.28 151.688 593 145.496ZM562 202.549V241.5H599.234C580.465 236.817 565.853 221.632 562 202.549ZM802 152H898.715C900.556 153.961 902.671 155.662 905 157.041V182.5H802V152ZM919.5 106C905.368 106 893.819 117.062 893.042 131H945.958C945.181 117.062 933.632 106 919.5 106ZM919.5 159C933.969 159 945.729 147.405 945.995 133H893.005C893.271 147.405 905.031 159 919.5 159ZM990 422.835V271.892L926.376 334.678C927.84 334.237 929.392 334 931 334C939.837 334 947 341.163 947 350C947 358.147 940.911 364.871 933.037 365.872L990 422.835ZM929.259 365.906L872 423.165V388.339L915.741 345.174C915.259 346.697 915 348.318 915 350C915 358.248 921.241 365.039 929.259 365.906ZM872 426.67V484.5H929.83L872 426.67ZM932.5 484.5L990 427V484.5H932.5ZM645 550H614L645 519V550ZM645 485.5V516.708L613.792 485.5H645ZM510 485.5H610.208L578.708 517H510V485.5ZM581 517.537V518.172L612 549.172L643.317 517.854L612 486.537L581 517.537ZM587.994 217L611.583 240.589L635.172 217H587.994ZM611.583 190.828L635.755 215H587.411L611.583 190.828ZM542 84H559.334L542 101.334V84ZM542 241.5V102.999L560 120.999V241.5H542ZM510 84H540V241.5H510V84ZM510 243.5H540V382.567L510 410.692V243.5ZM510 450.5V413.433L542 383.433V317H575V351H611V450.5H510ZM577 315H542V243.5H611V349H577V315ZM510 452.5H611V483.5H510V452.5ZM629 483.5H613V243.5H629V483.5ZM631 483.5V243.5H645V483.5H631ZM647 281.661V242.898L681.93 206H722.66L647 281.661ZM647 283.679V482.152L710 421.59V421.5H710.094L731.643 400.785C729.408 401.572 727.004 402 724.5 402C712.626 402 703 392.374 703 380.5C703 369.328 711.522 360.145 722.42 359.099L647 283.679ZM800 335.074L744.487 388.438C745.463 385.982 746 383.304 746 380.5C746 368.791 736.64 359.268 724.994 359.006L800 284V335.074ZM800 281.34V206H724.66L800 281.34ZM800 204H682.5V184.5H800V204ZM757 379.184L800 337.848V407.5H757V379.184ZM779 409.5H800V509H779V409.5ZM776.99 509C776.866 502.512 775.527 496.101 773.042 490.1C770.428 483.792 766.598 478.059 761.77 473.23C756.941 468.402 751.208 464.572 744.9 461.958C738.591 459.345 731.829 458 725 458C718.171 458 711.409 459.345 705.1 461.958C698.792 464.572 693.059 468.402 688.23 473.23C683.402 478.059 679.572 483.792 676.958 490.1C674.473 496.101 673.134 502.512 673.01 509H776.99ZM777 495.44V409.5H757V466.503C759.187 468.112 761.255 469.887 763.184 471.816C768.198 476.831 772.176 482.784 774.889 489.335C775.716 491.33 776.42 493.369 777 495.44ZM755 465.1V381.106L735 400.332V456.934C738.646 457.621 742.22 458.684 745.665 460.111C748.94 461.467 752.066 463.14 755 465.1ZM733 456.596V402.255L712 422.442V457.588C716.243 456.536 720.608 456 725 456C727.684 456 730.358 456.2 733 456.596ZM710 458.125C708.08 458.68 706.189 459.343 704.335 460.111C697.784 462.824 691.831 466.802 686.816 471.816C681.802 476.831 677.824 482.784 675.11 489.335C672.524 495.579 671.134 502.249 671.009 509H647V484.926L710 424.365V458.125ZM802 454.608V318.425L870 252.854V387.503L802 454.608ZM870 390.313V484.5H802V457.418L870 390.313ZM904 329.5V353.95L872 385.529V329.5H904ZM723.66 207.828L798.502 282.67L723.66 357.511L648.819 282.67L723.66 207.828ZM578.672 102.166L561.334 84.8285L543.996 102.166L561.334 119.504L578.672 102.166ZM931.165 366.828L989.254 424.918L931.165 483.007L873.076 424.918L931.165 366.828ZM724.5 400C735.27 400 744 391.27 744 380.5C744 369.73 735.27 361 724.5 361C713.73 361 705 369.73 705 380.5C705 391.27 713.73 400 724.5 400ZM945 350C945 357.732 938.732 364 931 364C923.268 364 917 357.732 917 350C917 342.268 923.268 336 931 336C938.732 336 945 342.268 945 350Z" fill="white"/>
<path d="M751.975 600H749.159L748.937 599.674C749.215 599.484 749.58 599.23 749.99 598.944C751.207 598.095 752.826 596.967 753.772 596.424C762.033 591.688 771.414 589.132 780.993 589.005C790.572 588.878 800.021 591.184 808.41 595.699C809.258 596.155 810.578 597.047 811.827 597.915C812.091 598.098 812.352 598.281 812.606 598.459C812.861 598.638 813.109 598.812 813.347 598.98C813.905 599.372 814.407 599.726 814.807 600H811.32C811.109 599.852 810.897 599.704 810.686 599.557C809.415 598.674 808.191 597.852 807.463 597.46C799.374 593.107 790.261 590.882 781.02 591.005C771.779 591.128 762.731 593.594 754.767 598.159C754.077 598.555 752.995 599.292 751.975 600Z" fill="white"/>
<path fill-rule="evenodd" clip-rule="evenodd" d="M267.5 66C285.449 66 300 80.5508 300 98.5C300 116.449 285.449 131 267.5 131C249.551 131 235 116.449 235 98.5C235 80.5508 249.551 66 267.5 66ZM298 98.5C298 81.6554 284.345 68 267.5 68C250.655 68 237 81.6554 237 98.5C237 115.345 250.655 129 267.5 129C284.345 129 298 115.345 298 98.5Z" fill="white"/>
<path fill-rule="evenodd" clip-rule="evenodd" d="M296 39.9235C295.957 26.1334 300.359 11.6858 307.556 0H305.219C302.275 4.95619 299.816 10.3678 297.957 16H266.158C262.528 10.1531 257.008 4.32268 251.499 0H248.163C253.846 4.0491 259.813 9.99585 263.783 16H213V98.9044C204.28 98.2289 196.645 95.4077 189.128 90.6494C181.19 85.6246 174.701 78.6268 170.3 70.3445C165.899 62.0623 163.737 52.7808 164.026 43.4132C164.315 34.0455 167.045 24.914 171.949 16.917C175.732 10.7473 182.658 4.26956 188.664 0H185.306C179.732 4.29506 173.749 10.1543 170.244 15.8715C167.484 20.3722 165.388 25.2196 164 30.2647V3.48091e-05H162V47H162.033C162.326 55.465 164.542 63.7706 168.534 71.2831C169.19 72.5177 169.891 73.7248 170.635 74.9022L137.187 43.9722C132.601 38.4883 125.708 35 118 35C104.193 35 93 46.1929 93 60C93 70.3233 99.2571 79.1852 108.186 83H54.0002V42.7675C66.0772 41.2592 75.7256 32.0501 77.6501 20.2867L97.7779 0H94.9605L77.9753 17.1193C77.9917 16.7358 78 16.3502 78 15.9627C78 12.9733 77.095 9.65854 75.8293 6.58901C74.8461 4.20444 73.627 1.92421 72.3907 0H69.9842C71.3895 2.01129 72.8493 4.60856 73.9803 7.35142C75.1948 10.2967 76 13.3375 76 15.9627C76 16.6314 75.9733 17.2941 75.9207 17.9498L57.9709 0H55.1425L73.6269 18.4844H25.128C25.0471 17.6916 25.0039 16.888 25.0003 16.0754V15.8821C25.0165 13.2754 25.8177 10.2666 27.0197 7.35142C28.1507 4.60856 29.6106 2.01129 31.0159 0H28.6094C27.3731 1.92421 26.154 4.20444 25.1707 6.58901C25.1132 6.72866 25.0563 6.86881 25.0003 7.00942V0H23.0003L23.0003 15.8766L23 15.9627L23.0003 16.0792V150.5H0.000305176V152.5H23.6133L65.9968 191.074C59.0121 191.418 52.1309 192.962 45.6563 195.643C38.2555 198.709 31.5309 203.202 25.8665 208.867C20.2021 214.531 15.7089 221.255 12.6434 228.656C9.89713 235.286 8.34485 242.343 8.05127 249.5H0.000305176V251.5H8V424.835L7.91751 424.918L8 425V486.5H128V515H76.9555L76.5413 514.586L76.1271 515H0V517H74.1271L25 566.127V541.5H0V543.5H23V600H25V569.873L44.0093 588.882C37.6872 590.616 32.1714 594.758 28.4757 600H30.9689C34.631 595.345 39.8406 591.823 45.661 590.534L55.127 600H57.9555L48.088 590.133C48.8842 590.045 49.6889 590 50.5001 590C58.2277 590 65.3784 594.086 70.0311 600H72.5243C67.6082 593.027 59.4716 588 50.5001 588C49.0827 588 47.6861 588.126 46.3198 588.364L25.9555 568L76.5413 517.414L127.125 567.998L94.9658 600H97.8012L129.957 568.002L129.956 568H130V486.5H162V600H164V486.5H198V511H198.006C198.134 520.904 200.159 530.696 203.976 539.851C207.922 549.315 213.705 557.914 220.994 565.157C228.284 572.399 236.938 578.144 246.461 582.064C255.985 585.983 266.192 588 276.5 588C286.808 588 297.015 585.983 306.539 582.064C316.062 578.144 324.716 572.399 332.006 565.157C339.295 557.914 345.078 549.315 349.024 539.851C350.696 535.84 352.025 531.706 353 527.494V566.266C336.299 570.015 321.338 579.289 310.548 592.605C308.629 594.973 306.863 597.443 305.255 600H307.63C309.01 597.888 310.501 595.839 312.101 593.864C322.513 581.015 336.915 572.03 353 568.317V600H355V552H387V600H389V552H458V570.606C453.114 567.448 447.508 565.552 441.688 565.103C435.258 564.608 428.818 565.899 423.076 568.833C417.333 571.766 412.514 576.229 409.147 581.729C405.781 587.229 404 593.552 404 600H406C406 593.92 407.68 587.959 410.853 582.773C414.027 577.588 418.572 573.38 423.985 570.614C429.399 567.847 435.472 566.631 441.534 567.097C447.458 567.554 453.146 569.601 458 573.019V600H460V552H490V600H492V552H500.5V550H390L421 519H492V452.5H500.5V450.5H492V243.5H500.5V241.5H492V217H500.5V215H492V3.48091e-05H490V82H460V3.48091e-05H458V26.9814C453.146 30.3994 447.458 32.4464 441.534 32.9026C435.472 33.3694 429.399 32.1526 423.985 29.3865C418.572 26.6203 414.027 22.4123 410.853 17.2267C407.68 12.0412 406 6.0797 406 3.48091e-05H404C404 6.44816 405.781 12.771 409.147 18.2708C412.514 23.7706 417.333 28.2336 423.076 31.1675C428.818 34.1013 435.258 35.3918 441.688 34.8967C447.508 34.4485 453.114 32.5524 458 29.3938V82H389V3.48091e-05H387V123.015C377.293 123.263 367.903 126.617 360.241 132.607C358.359 134.079 356.608 135.688 355 137.418V113L355.198 112.02L355 111.98V3.48091e-05H353V111.541C337.219 107.851 323.069 99.0638 312.76 86.5083C301.974 73.3727 296.054 56.9178 296 39.9235ZM128 517H78.9555L128 566.045V517ZM261 511H200.007C200.134 520.639 202.107 530.17 205.822 539.082C209.666 548.302 215.301 556.68 222.404 563.738C229.507 570.795 237.941 576.394 247.223 580.214C251.682 582.049 256.296 583.457 261 584.424V511ZM263 511V584.807C267.282 585.57 271.631 585.97 276 585.998V511H263ZM278 511V585.985C282.033 585.907 286.045 585.512 290 584.807V511H278ZM292 511V584.424C296.704 583.457 301.318 582.049 305.777 580.214C315.059 576.394 323.493 570.795 330.596 563.738C337.699 556.68 343.334 548.302 347.178 539.082C350.893 530.17 352.866 520.639 352.993 511H292ZM10.0021 251.5C10.0007 251.667 10 251.833 10 252L10 269.082L58.5 316.944V290.709C40.6057 286.218 27.1615 270.514 26.0715 251.5H10.0021ZM10.053 249.5C10.3454 242.606 11.8454 235.809 14.4911 229.422C17.4562 222.263 21.8021 215.759 27.2807 210.281C32.7594 204.802 39.2635 200.456 46.4217 197.491C49.3708 196.27 52.4071 195.292 55.5 194.565V208.162C38.3651 213.823 26 229.968 26 249L26.0001 249.097L26.0005 249.201L26.001 249.293C26.0015 249.362 26.0021 249.431 26.0029 249.5H10.053ZM57.5 194.132C60.7896 193.478 64.1349 193.105 67.5 193.019V206.026C64.0479 206.144 60.699 206.669 57.5 207.555V194.132ZM68.8871 191L25.0003 151.058V85H52.0002V132.397L52 132.5L52.0002 132.603V133H52.0043C52.2711 148.509 64.9269 161 80.5 161C84.984 161 89.226 159.965 93.0002 158.12V184.5H198V315.647L129.969 250.045C129.733 242.701 128.173 235.455 125.357 228.656C122.291 221.255 117.798 214.531 112.134 208.867C106.469 203.202 99.7446 198.709 92.3437 195.643C84.9429 192.578 77.0107 191 69 191L68.8871 191ZM128 251.94L128 251.765L127.999 251.629L127.998 251.5H112V327.5H128V251.94ZM127.947 249.5C127.655 242.606 126.155 235.809 123.509 229.422C120.544 222.264 116.198 215.759 110.719 210.281C105.241 204.802 98.7366 200.456 91.5784 197.491C88.4705 196.204 85.2658 195.188 82 194.45V208C99.3939 213.51 112 229.783 112 249C112 249.167 111.999 249.334 111.997 249.5H127.947ZM80 194.035C76.5454 193.379 73.0316 193.032 69.5 193.002V206.003C73.1254 206.044 76.6431 206.534 80 207.42V194.035ZM265.134 18.1814L265.448 18H297.325C295.163 25.1602 293.977 32.6269 294 39.9298C294.056 57.3849 300.136 74.2858 311.214 87.7775C313.352 90.3814 315.651 92.8274 318.092 95.1045H317.5V148.5H215V18H265.028L265.076 18.0819L265.134 18.1814ZM213 150.5V100.91C208.417 100.568 204.124 99.6573 200 98.2124V182.5H317.5V150.5H213ZM198 150V97.4648C194.606 96.1164 191.315 94.401 188.058 92.3393C184.705 90.2165 181.601 87.754 178.791 85H137V133H108.996C108.886 139.404 106.663 145.292 102.996 150H198ZM75.5845 20.4844C73.4165 32.1339 63.0236 40.9844 50.5 40.9844C37.9765 40.9844 27.5836 32.1339 25.4156 20.4844H75.5845ZM25.0003 26.1005C29.0832 36.0075 38.9712 42.9844 50.5 42.9844C51.0033 42.9844 51.5035 42.9711 52.0002 42.9449V83H25.0003V26.1005ZM28 249C28 249.167 28.001 249.334 28.003 249.5H55.5V210.275C39.4887 215.856 28 231.086 28 249ZM67.5 208.027C64.0402 208.151 60.6897 208.704 57.5 209.635V249.5H67.5V208.027ZM69.5 208.003C73.1332 208.046 76.6528 208.562 80 209.492V249.5H69.5V208.003ZM110 249C110 230.9 98.2716 215.54 82 210.104V249.5H109.997L109.998 249.398L109.999 249.245L110 249.086L110 249ZM69 290C47.1958 290 29.367 272.98 28.075 251.5H109.925C109.208 263.424 103.395 273.973 94.6344 281H94V281.499C87.0804 286.83 78.4104 290 69 290ZM110 327.5V262C107.422 270.137 102.489 277.227 96 282.468V327.5H110ZM94 351.977V283.99C89.4216 287.267 84.1732 289.668 78.5 290.947V336.681L94 351.977ZM76.5 334.707V291.348C74.0645 291.777 71.5583 292 69 292C66.0901 292 63.2477 291.711 60.5 291.16V318.917L76.5 334.707ZM135.733 45.3514L131.821 41.7342L131.886 41.6636C128.028 38.7368 123.217 37 118 37C105.297 37 95 47.2975 95 60C95 72.7026 105.297 83 118 83C130.703 83 141 72.7026 141 60C141 54.4341 139.023 49.3299 135.733 45.3514ZM141.026 50.2461L176.446 83H127.814C136.743 79.1852 143 70.3233 143 60C143 56.5395 142.297 53.2431 141.026 50.2461ZM135 85V131H108.961C108.181 115.957 95.737 104 80.5 104C68.4714 104 58.1833 111.452 54.0002 121.991V85H135ZM347.431 148.5C348.94 145.369 350.809 142.423 353 139.72V113.594C340.512 110.754 329.001 104.811 319.5 96.3855V148.5H347.431ZM344.076 158.152C344.665 155.519 345.488 152.959 346.527 150.5H319.5V204.602L354.43 241.5H376.234C354.271 236.02 338 216.16 338 192.5C338 184.581 339.823 177.088 343.071 170.417C342.84 166.331 343.17 162.204 344.076 158.152ZM346.028 158.589C345.42 161.307 345.084 164.06 345.014 166.81C353.568 152.361 369.118 142.543 387 142.022V125.016C377.738 125.263 368.782 128.468 361.473 134.183C353.644 140.304 348.188 148.927 346.028 158.589ZM389.019 123.008L389 123.008V84H405V144.757C399.979 143.022 394.599 142.057 389 142.002V123.997L389.019 123.008ZM349.618 187.197C347.011 182.056 345.491 176.486 345.101 170.825C352.85 155.34 368.642 144.58 387 144.023V189.417L369.736 206.681C361.039 202.601 353.954 195.746 349.618 187.197ZM347.834 188.101C352.264 196.837 359.435 203.879 368.237 208.18L360.709 215.709L385.933 240.933C360.341 239.599 340 218.425 340 192.5C340 186.111 341.235 180.01 343.481 174.424C344.18 179.151 345.639 183.772 347.834 188.101ZM405 146.879C399.998 145.07 394.613 144.059 389 144.003V188.583L416.126 215.709L415 216.834V217H414.834L390.892 240.942C416.567 239.695 437 218.484 437 192.5C437 172.122 424.432 154.679 406.625 147.5H405V146.879ZM407 145.496V84H436.666L418.5 102.166L438 121.667V182.451C434.586 165.539 422.72 151.688 407 145.496ZM438 202.549V241.5H400.766C419.535 236.817 434.147 221.632 438 202.549ZM198 152H101.285C99.4439 153.961 97.3286 155.662 95.0002 157.041V182.5H198V152ZM80.5 106C94.6322 106 106.181 117.062 106.958 131H54.0418C54.8195 117.062 66.3679 106 80.5 106ZM80.5 159C66.0315 159 54.2712 147.405 54.0046 133H106.995C106.729 147.405 94.9686 159 80.5 159ZM10 422.835V271.892L73.6236 334.678C72.1598 334.237 70.6076 334 69 334C60.1635 334 53 341.163 53 350C53 358.147 59.0885 364.871 66.9634 365.872L10 422.835ZM70.7413 365.906L128 423.165V388.339L84.2594 345.174C84.7405 346.697 85 348.318 85 350C85 358.248 78.7588 365.039 70.7413 365.906ZM128 426.67V484.5H70.17L128 426.67ZM67.5 484.5L10 427V484.5H67.5ZM355 550H386L355 519V550ZM355 485.5V516.708L386.209 485.5H355ZM490 485.5H389.792L421.292 517H490V485.5ZM419 517.537V518.172L388 549.172L356.683 517.854L388 486.537L419 517.537ZM412.006 217L388.417 240.589L364.828 217H412.006ZM388.417 190.828L364.245 215H412.589L388.417 190.828ZM458 84H440.666L458 101.334V84ZM458 241.5V102.999L440 120.999V241.5H458ZM490 84H460V241.5H490V84ZM490 243.5H460V382.567L490 410.692V243.5ZM490 450.5V413.433L458 383.433V317H425V351H389V450.5H490ZM423 315H458V243.5H389V349H423V315ZM490 452.5H389V483.5H490V452.5ZM371 483.5H387V243.5H371V483.5ZM369 483.5V243.5H355V483.5H369ZM353 281.661V242.898L318.07 206H277.34L353 281.661ZM353 283.679V482.152L290 421.59V421.5H289.906L268.357 400.785C270.592 401.572 272.996 402 275.5 402C287.374 402 297 392.374 297 380.5C297 369.328 288.478 360.145 277.58 359.099L353 283.679ZM200 335.074L255.513 388.438C254.537 385.982 254 383.304 254 380.5C254 368.791 263.36 359.268 275.006 359.006L200 284V335.074ZM200 281.34V206H275.34L200 281.34ZM200 204H317.5V184.5H200V204ZM243 379.184L200 337.848V407.5H243V379.184ZM221 409.5H200V509H221V409.5ZM223.01 509C223.134 502.512 224.473 496.101 226.958 490.1C229.572 483.792 233.402 478.059 238.23 473.23C243.059 468.402 248.792 464.572 255.1 461.958C261.409 459.345 268.171 458 275 458C281.829 458 288.591 459.345 294.9 461.958C301.208 464.572 306.941 468.402 311.77 473.23C316.598 478.059 320.428 483.792 323.042 490.1C325.527 496.101 326.866 502.512 326.99 509H223.01ZM223 495.44V409.5H243V466.503C240.813 468.112 238.745 469.887 236.816 471.816C231.802 476.831 227.824 482.784 225.111 489.335C224.284 491.33 223.58 493.369 223 495.44ZM245 465.1V381.106L265 400.332V456.934C261.354 457.621 257.78 458.684 254.335 460.111C251.06 461.467 247.934 463.14 245 465.1ZM267 456.596V402.255L288 422.442V457.588C283.757 456.536 279.392 456 275 456C272.316 456 269.642 456.2 267 456.596ZM290 458.125C291.92 458.68 293.811 459.343 295.665 460.111C302.217 462.824 308.169 466.802 313.184 471.816C318.198 476.831 322.176 482.784 324.89 489.335C327.476 495.579 328.866 502.249 328.991 509H353V484.926L290 424.365V458.125ZM198 454.608V318.425L130 252.854V387.503L198 454.608ZM130 390.313V484.5H198V457.418L130 390.313ZM96 329.5V353.95L128 385.529V329.5H96ZM276.34 207.828L201.498 282.67L276.34 357.511L351.181 282.67L276.34 207.828ZM421.328 102.166L438.666 84.8285L456.004 102.166L438.666 119.504L421.328 102.166ZM68.835 366.828L10.7459 424.918L68.835 483.007L126.924 424.918L68.835 366.828ZM275.5 400C264.73 400 256 391.27 256 380.5C256 369.73 264.73 361 275.5 361C286.27 361 295 369.73 295 380.5C295 391.27 286.27 400 275.5 400ZM55 350C55 357.732 61.268 364 69 364C76.732 364 83 357.732 83 350C83 342.268 76.732 336 69 336C61.268 336 55 342.268 55 350Z" fill="white"/>
<path d="M248.025 600H250.841L251.063 599.674C250.785 599.484 250.42 599.23 250.01 598.944C248.793 598.095 247.174 596.967 246.228 596.424C237.967 591.688 228.586 589.132 219.007 589.005C209.428 588.878 199.979 591.184 191.59 595.699C190.742 596.155 189.422 597.047 188.173 597.915C187.909 598.098 187.648 598.281 187.394 598.459C187.139 598.638 186.891 598.812 186.653 598.98C186.095 599.372 185.592 599.726 185.193 600H188.68C188.891 599.852 189.103 599.704 189.314 599.557C190.585 598.674 191.809 597.852 192.537 597.46C200.626 593.107 209.739 590.882 218.98 591.005C228.221 591.128 237.269 593.594 245.233 598.159C245.923 598.555 247.005 599.292 248.025 600Z" fill="white"/>
</g>
</svg>
