
<svg width="248" height="248" viewBox="0 0 248 248" fill="none" xmlns="http://www.w3.org/2000/svg">
<path d="M124 248C192.483 248 248 192.483 248 124C248 55.5167 192.483 0 124 0C55.5167 0 0 55.5167 0 124C0 192.483 55.5167 248 124 248Z" fill="#E9EEF2"/>
<path d="M91.4936 53.3067L99.7278 45.8687C99.7278 45.8687 120.511 51.8912 121.872 42.1327C121.872 42.1327 125.179 42.9834 126.002 41.146C126.819 39.3086 120.402 31.9727 120.402 31.9727C120.402 31.9727 119.653 24.0652 113.277 20.8328C106.9 17.6004 91.0309 13.041 89.248 14.9396C87.465 16.8382 81.2043 38.6009 81.2043 38.6009C81.2043 38.6009 79.8978 47.9783 91.4936 53.3067Z" fill="white"/>
<path d="M91.2771 53.7892C79.4566 48.3587 80.6679 38.6275 80.6816 38.5322L80.6952 38.4573C81.3416 36.2185 87.0443 16.5177 88.8613 14.5783C91.0525 12.2441 107.963 17.5453 113.509 20.3626C119.62 23.4589 120.75 30.5226 120.9 31.7543C122.567 33.6734 127.344 39.4169 126.473 41.3631C125.704 43.0848 123.37 42.9283 122.288 42.7582C121.934 44.3505 121.049 45.6095 119.648 46.5214C114.067 50.1417 101.927 47.0318 99.8583 46.4601L91.5833 53.9321L91.2771 53.7892ZM99.8787 45.3645C100.015 45.4053 113.503 49.2502 119.083 45.6299C120.396 44.7793 121.138 43.6088 121.356 42.0572L121.437 41.472L122.009 41.6217C122.036 41.6285 124.901 42.3226 125.527 40.9344C125.854 40.1994 123.839 36.7016 120.015 32.326L119.906 32.1967L119.892 32.0265C119.886 31.9517 119.089 24.364 113.053 21.3017C105.881 17.6678 91.0117 13.8501 89.6507 15.2996C88.4121 16.6198 84.2474 30.0054 81.7363 38.7023C81.6751 39.2944 80.9674 47.7055 91.4132 52.68L99.6065 45.2828L99.8787 45.3645Z" fill="black"/>
<path d="M207.926 215.283C185.843 235.597 156.37 248 124 248C112.965 248 102.267 246.559 92.0837 243.854L99.6986 213.655L207.92 212.791L207.926 215.283Z" fill="black"/>
<path d="M239.244 169.858C237.852 167.088 236.356 164.382 234.747 161.745C234.189 160.786 233.876 160.269 233.876 160.269L233.821 160.262C217.857 135.076 191.092 116.696 143.851 111.81C90.8192 106.332 73.9358 104.671 73.9358 104.671L104.824 53.7282L73.1259 32.9658L16.8546 99.0977C1.54317 117.09 9.64804 144.876 32.2341 151.81L86.2802 168.414L99.6998 213.655L195.162 212.858L198.938 220.181L197.337 223.999C215.933 210.338 230.58 191.613 239.244 169.858Z" fill="url(#paint0_linear)"/>
<path d="M185.52 177L195.246 213.297L193.725 213.704L183.999 177.408L185.52 177Z" fill="black"/>
<path d="M97.9136 69.1212L100.942 50.8904C102.956 38.7365 113.409 29.781 125.733 29.6585C135.348 29.5632 143.766 34.8236 148.156 42.663C151.252 45.6709 153.225 49.8356 153.348 54.4903L153.484 59.5261C154.92 59.7574 156.315 60.3222 157.553 61.2477C161.664 64.3236 162.507 70.21 159.432 74.3203L156.26 78.5599C155.634 79.3969 154.886 80.091 154.062 80.6559L154.995 114.79C155.253 124.256 147.788 132.143 138.322 132.402C138.159 132.409 138.002 132.409 137.846 132.409C128.591 132.409 120.969 125.039 120.711 115.729L120.241 98.5328C105.971 97.0153 95.4909 83.7182 97.9136 69.1212Z" fill="white"/>
<path d="M120.191 115.73L119.735 98.9958C112.875 98.1452 106.553 94.5045 102.327 88.9583C97.9653 83.2284 96.2096 76.1511 97.3937 69.0398L100.422 50.8022C102.484 38.3692 113.127 29.2572 125.73 29.1279C125.819 29.1279 125.907 29.1279 125.995 29.1279C135.346 29.1279 143.981 34.1705 148.588 42.3366C151.882 45.5622 153.76 49.8699 153.89 54.4769L154.012 59.0839C155.427 59.3766 156.727 59.9618 157.884 60.826C159.987 62.398 161.348 64.705 161.722 67.3181C162.096 69.9313 161.436 72.5308 159.864 74.6336L156.693 78.8732C156.115 79.6489 155.414 80.3363 154.604 80.9215L155.53 114.77C155.659 119.486 153.944 123.977 150.698 127.407C147.452 130.837 143.063 132.797 138.347 132.926C138.183 132.933 138.02 132.933 137.85 132.933C128.207 132.926 120.449 125.372 120.191 115.73ZM125.73 30.1827C113.644 30.3052 103.43 39.0498 101.456 50.9791L98.428 69.2099C97.2984 76.0354 98.9793 82.8201 103.158 88.3186C107.295 93.7559 113.542 97.2877 120.293 97.9955L120.756 98.0431L121.239 115.702C121.484 124.767 128.779 131.871 137.843 131.871C138 131.871 138.149 131.871 138.306 131.864C142.743 131.742 146.867 129.898 149.922 126.679C152.971 123.453 154.59 119.234 154.468 114.797L153.529 80.3771L153.767 80.2138C154.577 79.6626 155.271 78.9956 155.843 78.2403L159.014 74.0007C160.416 72.1225 161.008 69.8088 160.667 67.4678C160.334 65.1337 159.116 63.0717 157.238 61.6699C156.101 60.8192 154.808 60.2748 153.4 60.0435L152.971 59.9754L152.821 54.5041C152.699 50.1489 150.916 46.0794 147.785 43.0375L147.69 42.915C143.28 35.0416 134.978 30.1827 125.982 30.1827C125.9 30.1827 125.819 30.1827 125.73 30.1827Z" fill="black"/>
<path d="M155.814 67.2882L148.301 75.1494L149.447 76.2449L156.96 68.3837L155.814 67.2882Z" fill="black"/>
<path d="M115.133 75.6136L115.337 74.0484L110.104 73.3543L111.976 58.6417L110.404 58.4443L108.342 74.7153L115.133 75.6136Z" fill="black"/>
<path d="M141.817 73.9936L137.155 46.712L136.046 40.2335C134.318 41.7851 132.337 43.0304 130.187 43.9423C122.402 47.2564 100.17 43.6225 98.5024 27.6509C97.1414 14.6192 110.057 23.2208 117.087 23.0507C128.132 22.7921 136.318 17.0486 150.534 26.5077C167.561 37.8245 156.911 60.7985 156.911 60.7985C156.911 60.7985 149.309 57.0285 141.817 73.9936Z" fill="black"/>
<path d="M120.346 98.6685L129.907 98.6753L120.475 106.331L120.346 98.6685Z" fill="black"/>
<path d="M120.394 66.2767C119.598 67.4812 117.971 67.801 116.774 67.0048C115.569 66.2086 115.249 64.5822 116.046 63.3845C116.842 62.18 118.468 61.8602 119.666 62.6564C120.87 63.4526 121.19 65.079 120.394 66.2767Z" fill="black"/>
<path d="M104.993 66.2767C104.197 67.4812 102.571 67.801 101.373 67.0048C100.169 66.2086 99.8487 64.5822 100.645 63.3845C101.441 62.18 103.068 61.8602 104.265 62.6564C105.47 63.4526 105.796 65.079 104.993 66.2767Z" fill="black"/>
<path d="M125.197 77.8315C124.959 77.8315 117.528 77.2802 116.351 83.0782L125.197 77.8315Z" fill="black"/>
<defs>
<linearGradient id="paint0_linear" x1="254.276" y1="170.464" x2="9.00155" y2="170.464" gradientUnits="userSpaceOnUse">
<stop stop-color="#EDAF01"/>
<stop offset="1" stop-color="#FFFFD9"/>
</linearGradient>
</defs>
</svg>
