
<svg width="284" height="248" viewBox="0 0 284 248" fill="none" xmlns="http://www.w3.org/2000/svg">
<path d="M124 248C192.483 248 248 192.483 248 124C248 55.5167 192.483 0 124 0C55.5167 0 0 55.5167 0 124C0 192.483 55.5167 248 124 248Z" fill="#E9EEF2"/>
<path d="M164.998 241.335C152.36 245.655 138.805 248 124.698 248C96.7394 248 70.9356 238.788 50.1758 223.241L50.2016 212.06L157.813 212.912L164.998 241.335Z" fill="black"/>
<path d="M50.3352 223.591V212.497L157.983 213.352L171.338 168.344C171.338 168.344 185.202 169.158 219.884 171.213C228.978 171.752 235.99 169.789 241.387 166.599C246.25 153.291 248.902 138.919 248.902 123.927C248.902 104.521 244.456 86.1544 236.528 69.7891L235.281 69.458L208.797 125.921C208.797 125.921 132.963 107.395 92.6771 114.344C57.1945 120.454 26.3345 146.162 12.3496 177.292C21.0901 195.656 34.199 211.538 50.3352 223.591Z" fill="url(#paint0_linear)"/>
<path d="M241.078 166.721C256.048 157.742 258.409 139.046 258.409 139.046L271.413 79.3415L236.289 69.8828C244.104 86.2528 248.486 104.625 248.486 124.036C248.486 139.033 245.872 153.409 241.078 166.721Z" fill="url(#paint1_linear)"/>
<path d="M159.216 69.0652L156.213 50.9977C154.215 38.9494 143.837 30.0829 131.613 29.9512C122.077 29.8498 113.728 35.0684 109.366 42.8304C106.292 45.8096 104.334 49.9439 104.213 54.5646L104.081 59.5501C102.661 59.7832 101.271 60.3405 100.043 61.2626C95.9653 64.3127 95.1233 70.1393 98.1768 74.2128L101.322 78.4181C101.94 79.249 102.691 79.938 103.503 80.4954L102.579 114.32C102.326 123.703 109.731 131.516 119.125 131.769C119.287 131.769 119.44 131.779 119.602 131.779C128.783 131.779 136.35 124.473 136.604 115.252L137.071 98.2081C151.222 96.7084 161.62 83.5353 159.216 69.0652Z" fill="white"/>
<path d="M119.466 132.778C119.301 132.778 119.136 132.778 118.972 132.767C109.162 132.504 101.401 124.431 101.669 114.789L102.606 81.2624C101.792 80.685 101.092 80.0064 100.506 79.2366L97.3149 75.0331C94.0313 70.7183 94.9268 64.5802 99.3117 61.3491C100.475 60.4881 101.782 59.9108 103.213 59.6272L103.336 55.0591C103.46 50.491 105.364 46.2267 108.679 43.026C113.31 34.9432 121.998 29.9497 131.416 29.9497C131.509 29.9497 131.591 29.9497 131.684 29.9497C144.365 30.0814 155.08 39.1062 157.159 51.4228L160.206 69.4825C161.39 76.5322 159.63 83.5414 155.234 89.2135C150.983 94.7033 144.622 98.3092 137.716 99.1499L137.252 115.731C136.974 125.292 129.172 132.778 119.466 132.778ZM131.406 31.0031C122.348 31.0031 114 35.8143 109.564 43.6034L109.471 43.7249C106.321 46.7332 104.52 50.7645 104.397 55.0895L104.242 60.5084L103.81 60.5793C102.389 60.8021 101.082 61.3491 99.9499 62.1898C96.0385 65.0765 95.2356 70.5562 98.1692 74.4052L101.36 78.6086C101.936 79.3581 102.636 80.0165 103.45 80.5635L103.686 80.7255L102.739 114.819C102.492 123.895 109.78 131.481 119.003 131.724C119.157 131.724 119.311 131.734 119.466 131.734C128.585 131.734 135.935 124.705 136.182 115.721L136.666 98.2282L137.129 98.1775C143.922 97.4685 150.211 93.9741 154.38 88.5855C158.59 83.1362 160.288 76.4208 159.146 69.6547L156.099 51.595C154.102 39.7848 143.83 31.1145 131.663 30.993C131.581 31.0031 131.488 31.0031 131.406 31.0031Z" fill="black"/>
<path d="M101.802 67.5765L100.66 68.6626L108.154 76.4634L109.297 75.3773L101.802 67.5765Z" fill="black"/>
<path d="M142.717 75.873L142.502 74.3264L147.753 73.6391L145.876 59.0934L147.455 58.9014L149.527 74.9834L142.717 75.873Z" fill="black"/>
<path d="M130.032 80.1522C128.483 83.6835 130.158 87.7761 133.78 89.2866C137.401 90.7971 141.599 89.1641 143.148 85.6328C144.697 82.1015 140.918 80.887 137.297 79.3765C133.675 77.866 131.582 76.6209 130.032 80.1522Z" fill="black"/>
<path d="M115.553 73.8763L120.172 46.929L121.266 40.5356C122.978 42.0708 124.943 43.2929 127.07 44.1919C134.778 47.4643 156.808 43.8788 158.459 28.1023C159.806 15.2347 147.013 23.7289 140.045 23.5572C129.106 23.2946 120.992 17.6284 106.913 26.9711C90.0489 38.152 100.603 60.837 100.603 60.837C100.603 60.837 108.129 57.11 115.553 73.8763Z" fill="black"/>
<path d="M137.485 97.8364H127.449L137.345 105.823L137.485 97.8364Z" fill="black"/>
<path d="M131.888 64.7784C132.654 65.9222 134.214 66.235 135.363 65.4725C136.521 64.7099 136.825 63.1555 136.059 62.0117C135.294 60.8582 133.733 60.5551 132.585 61.3176C131.427 62.0802 131.113 63.6248 131.888 64.7784Z" fill="black"/>
<path d="M150.033 64.7784C150.953 65.9222 152.827 66.235 154.206 65.4725C155.597 64.7099 155.962 63.1555 155.043 62.0117C154.123 60.8582 152.249 60.5551 150.87 61.3176C149.479 62.0802 149.114 63.6248 150.033 64.7784Z" fill="black"/>
<path d="M244.981 72.3389L242.317 66.8431C242.317 66.8431 240.698 62.9291 239.448 58.4979C238.198 54.0668 239.059 47.8713 232.86 41.6758C226.661 35.4905 236.221 37.6097 239.346 40.4894C241.948 42.8825 243.803 49.3923 246.436 50.9842C247.543 49.6356 248.065 48.2465 248.065 48.2465L255.514 21.1121C255.74 20.2096 256.611 19.6114 257.543 19.7128L258.599 19.8243C259.715 19.946 260.474 20.9802 260.248 22.0652C259.019 27.8957 254.879 45.1944 255.197 45.2248L255.832 45.5594L266.457 18.2222C266.775 17.3299 267.707 16.8127 268.64 17.0155L270.095 17.3299C271.15 17.5631 271.796 18.6176 271.509 19.6418C269.757 25.9589 262.052 46.8979 262.379 46.9283L263.168 47.2426L274.296 24.7624C274.634 23.8194 275.659 23.3124 276.611 23.5963L277.759 23.9411C278.763 24.2352 279.327 25.2897 279.019 26.2733L268.896 48.4391L269.685 48.9867L279.88 33.138C280.3 32.2862 281.294 31.8806 282.196 32.1848L282.739 32.3775C283.702 32.7121 284.224 33.7464 283.907 34.7198C282.831 38.0457 278.025 44.8395 275.013 52.0185C272.677 57.5955 272.288 62.1483 268.568 68.8508C267.001 71.6899 264.132 75.0158 262.564 76.8714" fill="white"/>
<path d="M262.419 76.8712L261.67 76.2508L262.008 75.844C263.567 73.993 266.182 70.891 267.618 68.2873C269.904 64.1581 270.93 60.8222 271.914 57.5981C272.519 55.6352 273.145 53.6011 274.037 51.4551C275.657 47.57 277.841 43.7256 279.595 40.6439C281.123 37.9589 282.435 35.64 282.928 34.1348C283.163 33.4025 282.784 32.6397 282.056 32.3855L281.502 32.1922C280.836 31.9685 280.097 32.2736 279.79 32.9041L279.759 32.955L269.31 49.2787L267.782 48.2006L278.067 25.6322C278.169 25.2864 278.128 24.9203 277.954 24.5948C277.78 24.2694 277.482 24.0253 277.124 23.9134L275.975 23.5676C275.257 23.354 274.498 23.7304 274.252 24.4321L274.232 24.483L262.89 47.4276L261.742 46.9801L261.578 46.9598L261.444 46.7564C261.25 46.4411 261.229 46.4106 264.736 36.3214C266.9 30.1174 269.597 22.3878 270.53 19.0112C270.632 18.6451 270.581 18.2586 270.386 17.9332C270.191 17.6077 269.863 17.3738 269.484 17.2924L268.028 16.9771C267.331 16.8246 266.633 17.2111 266.408 17.8721L255.569 45.8207L254.533 45.2715L254.41 45.2613L254.277 45.0782C254.051 44.7731 254 44.6918 257.179 30.7582C258.03 27.0459 258.83 23.5473 259.26 21.4725C259.342 21.086 259.26 20.6995 259.024 20.3741C258.789 20.0588 258.43 19.8452 258.03 19.8045L256.974 19.6927C256.286 19.6215 255.64 20.069 255.466 20.7402L248.011 47.9667C247.97 48.0684 247.427 49.4922 246.288 50.8958L246.022 51.2212L245.663 50.9975C244.135 50.072 242.945 47.7938 241.684 45.3834C240.679 43.4611 239.633 41.4677 238.495 40.41C236.28 38.3657 231.573 37.1961 230.845 37.9385C230.64 38.1521 230.794 39.0166 232.681 40.9083C237.449 45.6783 238.157 50.5093 238.731 54.3944C238.915 55.6861 239.1 56.8964 239.408 57.9846C240.638 62.3579 242.238 66.2634 242.258 66.3041L244.914 71.786L244.043 72.203L241.376 66.6906C241.346 66.6295 239.715 62.663 238.474 58.2389C238.157 57.0896 237.972 55.8488 237.777 54.5266C237.203 50.5907 236.547 46.1258 232.004 41.5796C231.245 40.8168 228.938 38.5081 230.158 37.2571C231.583 35.8027 237.09 37.7656 239.162 39.6879C240.433 40.8575 241.51 42.9221 242.556 44.9257C243.591 46.9191 244.668 48.9634 245.827 49.9092C246.678 48.76 247.098 47.6615 247.109 47.6514L254.543 20.4758C254.82 19.357 255.928 18.5943 257.097 18.7163L258.153 18.8282C258.819 18.8994 259.435 19.2553 259.824 19.7944C260.214 20.3334 260.357 21.0047 260.224 21.6556C259.783 23.7304 258.983 27.2392 258.132 30.9616C257.015 35.8638 255.661 41.783 255.271 43.9391L265.505 17.5365C265.895 16.4279 267.074 15.7669 268.253 16.0313L269.71 16.3466C270.356 16.489 270.899 16.8754 271.237 17.4348C271.576 17.9942 271.668 18.6451 271.484 19.2655C270.54 22.6726 267.843 30.4124 265.68 36.6367C264.244 40.7558 262.767 44.9969 262.429 46.2072L273.36 24.0863C273.791 22.9167 275.062 22.2861 276.262 22.6421L277.411 22.9879C278.016 23.171 278.518 23.5778 278.815 24.1372C279.113 24.6966 279.174 25.3373 278.99 25.9374L278.969 25.9984L269.002 47.865L269.043 47.8955L278.959 32.4465C279.492 31.3989 280.733 30.8904 281.861 31.2769L282.415 31.4701C283.635 31.8973 284.281 33.1889 283.881 34.4196C283.368 36.0163 282.025 38.3759 280.477 41.1016C278.641 44.3256 276.57 47.9768 274.97 51.8111C274.088 53.9164 273.504 55.8386 272.878 57.8727C271.873 61.1476 270.827 64.5344 268.5 68.745C267.013 71.4402 264.367 74.5829 262.778 76.4644L262.419 76.8712ZM262.029 46.0648L262.049 46.0749C262.049 46.0648 262.039 46.0648 262.029 46.0648Z" fill="black"/>
<path d="M54.384 175.706L50.1758 212.986L51.7462 213.161L55.9544 175.881L54.384 175.706Z" fill="black"/>
<defs>
<linearGradient id="paint0_linear" x1="2.84265" y1="182.089" x2="272.165" y2="182.089" gradientUnits="userSpaceOnUse">
<stop stop-color="#EDAF01"/>
<stop offset="1" stop-color="#FFFFD9"/>
</linearGradient>
<linearGradient id="paint1_linear" x1="5.94718" y1="182.215" x2="271.416" y2="182.215" gradientUnits="userSpaceOnUse">
<stop stop-color="#EDAF01"/>
<stop offset="1" stop-color="#FFFFD9"/>
</linearGradient>
</defs>
</svg>
